<svg xmlns="http://www.w3.org/2000/svg" xmlns:xlink="http://www.w3.org/1999/xlink" width="167.002" height="41.996" viewBox="0 0 167.002 41.996"><defs><clipPath id="a"><rect width="167.002" height="41.996" fill="none"/></clipPath></defs><g transform="translate(0 0)"><path d="M120.585,0l-6.019,16.536h5.717L126.3,0Z" transform="translate(-91.559)" fill="#fff"/><path d="M158.079,0l-6.02,16.536h5.718L163.794,0Z" transform="translate(-121.522)" fill="#fff"/><path d="M192.357,0,185.42,18.767h5.718L198.075,0Z" transform="translate(-148.183)" fill="#fff"/><path d="M124.225,90.653l-2.082,5.718H101.435l2.08-5.718Z" transform="translate(-81.064 -72.448)" fill="#fff"/><path d="M2.082,126.917,0,132.635H15.725l2.08-5.718Z" transform="translate(0 -101.429)" fill="#fff"/><path d="M31.122,90.653l-2.08,5.718H13.318l2.08-5.718Z" transform="translate(-10.644 -72.448)" fill="#fff"/><path d="M44.1,54.388l-2.082,5.717H26.3l2.08-5.717Z" transform="translate(-21.015 -43.466)" fill="#fff"/><path d="M219.146,126.917l-2.08,5.718H201.341l2.082-5.718Z" transform="translate(-160.907 -101.43)" fill="#fff"/><path d="M232.706,90.653l-2.08,5.718H214.9l2.082-5.718Z" transform="translate(-171.746 -72.448)" fill="#fff"/><path d="M245.523,54.388l-2.082,5.717H227.718l2.08-5.717Z" transform="translate(-181.987 -43.466)" fill="#fff"/><path d="M75.758,113.712l-6.936,19.16h5.717l6.938-19.16Z" transform="translate(-55.001 -90.876)" fill="#fff"/><path d="M111.683,126.779l-6.02,16.536h5.72l6.017-16.536Z" transform="translate(-84.443 -101.319)" fill="#fff"/><path d="M149.036,126.779l-6.019,16.536h5.718l6.019-16.536Z" transform="translate(-114.296 -101.319)" fill="#fff"/><path d="M338.5,37.639h.761v1.418H340.6V37.639h.77v3.547h-.76V39.633h-1.346v1.553H338.5Z" transform="translate(-270.523 -30.08)" fill="#fff"/><g transform="translate(0 0)"><g clip-path="url(#a)"><path d="M356.194,42.965v1.477c0,.216,0,.544.387.544.467,0,.467-.348.467-.77V42.965h.745V44.6c.01.535.015.6.015.662a1.2,1.2,0,0,0,.02.182h-.706l-.025-.327a.817.817,0,0,1-.731.393.946.946,0,0,1-.749-.337,1.131,1.131,0,0,1-.163-.667v-1.54Z" transform="translate(-284.07 -34.337)" fill="#fff"/><path d="M370.005,43.214c0-.157-.01-.309-.025-.466h.7l.024.319a.856.856,0,0,1,.766-.374.751.751,0,0,1,.78.467.823.823,0,0,1,.794-.462.813.813,0,0,1,.756.4,1.417,1.417,0,0,1,.122.731v1.4h-.731V43.768c0-.265-.039-.56-.417-.56-.437,0-.447.408-.447.775v1.241H371.6V43.754c0-.192,0-.545-.409-.545-.457,0-.457.392-.457.56v1.456H370Z" transform="translate(-295.681 -34.119)" fill="#fff"/><path d="M394.068,43.978a.911.911,0,0,1-.137.614.41.41,0,0,1-.31.142.342.342,0,0,1-.353-.33c0-.009,0-.018,0-.027,0-.292.334-.438.8-.4m.751,1.168a2.927,2.927,0,0,1-.06-.628l0-1a.977.977,0,0,0-.172-.608,1.19,1.19,0,0,0-.884-.32,1.288,1.288,0,0,0-.75.2.69.69,0,0,0-.28.583h.711a.374.374,0,0,1,.054-.221.327.327,0,0,1,.275-.137.337.337,0,0,1,.327.206.991.991,0,0,1,.034.327,2.569,2.569,0,0,0-.981.137.822.822,0,0,0-.525.771.768.768,0,0,0,.216.544.815.815,0,0,0,.618.2.824.824,0,0,0,.741-.4,1.948,1.948,0,0,0,.025.338Z" transform="translate(-313.731 -34.041)" fill="#fff"/><path d="M406.671,43.134c0-.01,0-.28-.014-.452h.7l.019.373a.859.859,0,0,1,.805-.431.754.754,0,0,1,.756.466,2.056,2.056,0,0,1,.068.74v1.339h-.741v-1.54a.591.591,0,0,0-.039-.27.378.378,0,0,0-.353-.211.453.453,0,0,0-.381.19.678.678,0,0,0-.082.378v1.452h-.735Z" transform="translate(-324.991 -34.064)" fill="#fff"/><path d="M432.484,37.639h1.1l1.329,2.791V37.639h.707v3.547h-1.044L433.2,38.243v2.942h-.716Z" transform="translate(-345.631 -30.08)" fill="#fff"/><path d="M450.962,44.056c0,.163,0,.662.506.662a.406.406,0,0,0,.431-.343h.662a.816.816,0,0,1-.235.539,1.2,1.2,0,0,1-.868.289,1.234,1.234,0,0,1-.874-.309,1.606,1.606,0,0,1,.2-2.139,1.244,1.244,0,0,1,.7-.206,1.063,1.063,0,0,1,1,.6,1.877,1.877,0,0,1,.147.908Zm.923-.457c0-.113-.01-.554-.432-.554-.32,0-.452.265-.467.554Z" transform="translate(-359.843 -34.005)" fill="#fff"/><path d="M465.584,42.479a2.249,2.249,0,0,1-.564.082c-.735,0-.735-.461-.735-.667V40.53h-.476v-.481h.476v-.485l.727-.265v.75h.588v.481h-.588v1.119c0,.226,0,.368.327.368a1.853,1.853,0,0,0,.245-.015Z" transform="translate(-370.666 -31.407)" fill="#fff"/><path d="M476.636,42.965l.457,1.872.525-1.869h.8l.521,1.869.485-1.869h.722l-.849,2.474h-.789L478,43.612l-.522,1.83h-.8l-.81-2.477Z" transform="translate(-380.301 -34.337)" fill="#fff"/><path d="M499.724,44c0-.226.006-.839.535-.839.481,0,.544.456.544.785,0,.661-.216.849-.535.849-.358,0-.545-.24-.545-.794M498.979,44a1.2,1.2,0,0,0,1.266,1.308,1.227,1.227,0,0,0,1.3-1.325,1.283,1.283,0,1,0-2.566.017" transform="translate(-398.773 -34.109)" fill="#fff"/><path d="M514.329,43.507c0-.118-.02-.476-.034-.619h.682l.015.476a.748.748,0,0,1,.844-.481v.654c-.736-.069-.781.309-.781.619v1.219h-.726Z" transform="translate(-411.013 -34.27)" fill="#fff"/><path d="M524.984,37.639h.721v2.09l.751-1.035h.817l-.847,1.079.9,1.413h-.858l-.766-1.349v1.349h-.721Z" transform="translate(-419.553 -30.08)" fill="#fff"/><path d="M441.531,71.543h5.4V68.126h-5.811c-6.094,0-9.848,3.2-9.848,8.813,0,5.54,4.062,8.228,9.848,8.228h5.811V75.443h-3.445V82.37h-2.366c-3.793,0-6.094-2.323-6.094-5.665,0-3.577,3.084-5.162,6.506-5.162" transform="translate(-344.662 -54.445)" fill="#fff"/><path d="M350.1,76.587c0,2.921-1.308,5.985-5.04,5.985-3.7,0-5.04-3.064-5.04-5.985,0-2.851,1.466-5.867,5.04-5.867,3.6,0,5.04,3.016,5.04,5.867m3.754,0c0-4.932-3.163-8.462-8.794-8.462-5.683,0-8.794,3.459-8.794,8.462,0,5.027,3.06,8.581,8.794,8.581,5.683,0,8.794-3.624,8.794-8.581" transform="translate(-268.738 -54.444)" fill="#fff"/><path d="M595.8,70.929h3.984l5.4,13.156-2.622,3.323Z" transform="translate(-476.151 -56.685)" fill="#fff"/><path d="M629.663,83.935l-.173,3.472h2.734L638.1,73.1l-.36-2.171H635Z" transform="translate(-503.074 -56.684)" fill="#fff"/><path d="M656.18,73.6l2.887-2.675,5.4,13.156-2.622,3.323Z" transform="translate(-524.405 -56.684)" fill="#fff"/><path d="M684.572,83.935l-.172,3.472h2.734L693.9,70.928h-3.985Z" transform="translate(-546.957 -56.684)" fill="#fff"/><path d="M555.585,70.929h3.985l6.766,16.479h-3.986Z" transform="translate(-444.012 -56.685)" fill="#fff"/><path d="M517.693,87.407h3.986l6.766-16.479h-3.986Z" transform="translate(-413.729 -56.684)" fill="#fff"/><path d="M756.266,70.929h3.985l6.765,16.479h-3.985Z" transform="translate(-604.391 -56.685)" fill="#fff"/><path d="M718.374,87.407h3.985l6.766-16.479H725.14Z" transform="translate(-574.109 -56.684)" fill="#fff"/><path d="M757.265,110.673l-1.446,3.445H769.59l1.446-3.445Z" transform="translate(-604.034 -88.447)" fill="#fff"/><path d="M469.051,104.561l-1.446,3.445h6.046l1.445-3.445Z" transform="translate(-373.7 -83.563)" fill="#fff"/></g></g></g></svg>